<svg xmlns="http://www.w3.org/2000/svg" width="64" height="64" viewBox="0 0 64 64" fill="none">
  <mask id="mask0_550_253" style="mask-type:alpha" maskUnits="userSpaceOnUse" x="0" y="0" width="64" height="64">
    <rect width="64" height="64" fill="#D9D9D9"/>
  </mask>
  <g mask="url(#mask0_550_253)">
    <path d="M58.6666 58.6668L47.9999 48.0002H10.6666C9.19992 48.0002 7.94436 47.4779 6.89992 46.4335C5.85547 45.389 5.33325 44.1335 5.33325 42.6668V10.6668C5.33325 9.20016 5.85547 7.94461 6.89992 6.90016C7.94436 5.85572 9.19992 5.3335 10.6666 5.3335H53.3332C54.7999 5.3335 56.0555 5.85572 57.0999 6.90016C58.1444 7.94461 58.6666 9.20016 58.6666 10.6668V58.6668ZM10.6666 42.6668H50.2666L53.3332 45.6668V10.6668H10.6666V42.6668Z" fill="#1C1B1F"/>
  </g>
</svg>