<svg xmlns="http://www.w3.org/2000/svg" width="64" height="64" viewBox="0 0 64 64" fill="none">
  <path d="M28.4444 49.7778H35.5556V35.5556H49.7778V28.4444H35.5556V14.2222H28.4444V28.4444H14.2222V35.5556H28.4444V49.7778ZM7.11111 64C5.15556 64 3.48148 63.3037 2.08889 61.9111C0.696296 60.5185 0 58.8444 0 56.8889V7.11111C0 5.15556 0.696296 3.48148 2.08889 2.08889C3.48148 0.696296 5.15556 0 7.11111 0H56.8889C58.8444 0 60.5185 0.696296 61.9111 2.08889C63.3037 3.48148 64 5.15556 64 7.11111V56.8889C64 58.8444 63.3037 60.5185 61.9111 61.9111C60.5185 63.3037 58.8444 64 56.8889 64H7.11111ZM7.11111 56.8889H56.8889V7.11111H7.11111V56.8889Z" fill="#1C1B1F"/>
</svg>