<svg xmlns="http://www.w3.org/2000/svg" width="64" height="64" viewBox="0 0 64 64" fill="none">
  <mask id="mask0_550_278" style="mask-type:alpha" maskUnits="userSpaceOnUse" x="0" y="0" width="64" height="64">
    <rect width="64" height="64" fill="#D9D9D9"/>
  </mask>
  <g mask="url(#mask0_550_278)">
    <path d="M15.9998 37.3332C14.5332 37.3332 13.2776 36.8109 12.2332 35.7665C11.1887 34.7221 10.6665 33.4665 10.6665 31.9998C10.6665 30.5332 11.1887 29.2776 12.2332 28.2332C13.2776 27.1887 14.5332 26.6665 15.9998 26.6665C17.4665 26.6665 18.7221 27.1887 19.7665 28.2332C20.8109 29.2776 21.3332 30.5332 21.3332 31.9998C21.3332 33.4665 20.8109 34.7221 19.7665 35.7665C18.7221 36.8109 17.4665 37.3332 15.9998 37.3332ZM31.9998 37.3332C30.5332 37.3332 29.2776 36.8109 28.2332 35.7665C27.1887 34.7221 26.6665 33.4665 26.6665 31.9998C26.6665 30.5332 27.1887 29.2776 28.2332 28.2332C29.2776 27.1887 30.5332 26.6665 31.9998 26.6665C33.4665 26.6665 34.7221 27.1887 35.7665 28.2332C36.8109 29.2776 37.3332 30.5332 37.3332 31.9998C37.3332 33.4665 36.8109 34.7221 35.7665 35.7665C34.7221 36.8109 33.4665 37.3332 31.9998 37.3332ZM47.9998 37.3332C46.5332 37.3332 45.2776 36.8109 44.2332 35.7665C43.1887 34.7221 42.6665 33.4665 42.6665 31.9998C42.6665 30.5332 43.1887 29.2776 44.2332 28.2332C45.2776 27.1887 46.5332 26.6665 47.9998 26.6665C49.4665 26.6665 50.7221 27.1887 51.7665 28.2332C52.811 29.2776 53.3332 30.5332 53.3332 31.9998C53.3332 33.4665 52.811 34.7221 51.7665 35.7665C50.7221 36.8109 49.4665 37.3332 47.9998 37.3332Z" fill="#1C1B1F"/>
  </g>
</svg>