<svg xmlns="http://www.w3.org/2000/svg" width="64" height="64" viewBox="0 0 64 64" fill="none">
  <mask id="mask0_550_259" style="mask-type:alpha" maskUnits="userSpaceOnUse" x="0" y="0" width="64" height="64">
    <rect width="64" height="64" fill="#D9D9D9"/>
  </mask>
  <g mask="url(#mask0_550_259)">
    <path d="M31.9999 55.9997L28.1333 52.5331C23.6444 48.4886 19.9333 44.9997 16.9999 42.0664C14.0666 39.1331 11.7333 36.4997 9.99992 34.1664C8.26659 31.8331 7.05547 29.6886 6.36659 27.7331C5.6777 25.7775 5.33325 23.7775 5.33325 21.7331C5.33325 17.5553 6.73325 14.0664 9.53325 11.2664C12.3333 8.46641 15.8221 7.06641 19.9999 7.06641C22.311 7.06641 24.511 7.5553 26.5999 8.53307C28.6888 9.51085 30.4888 10.8886 31.9999 12.6664C33.511 10.8886 35.311 9.51085 37.3999 8.53307C39.4888 7.5553 41.6888 7.06641 43.9999 7.06641C48.1777 7.06641 51.6666 8.46641 54.4666 11.2664C57.2666 14.0664 58.6666 17.5553 58.6666 21.7331C58.6666 23.7775 58.3221 25.7775 57.6333 27.7331C56.9444 29.6886 55.7332 31.8331 53.9999 34.1664C52.2666 36.4997 49.9333 39.1331 46.9999 42.0664C44.0666 44.9997 40.3555 48.4886 35.8666 52.5331L31.9999 55.9997Z" fill="#FF8A8D"/>
  </g>
</svg>