<svg xmlns="http://www.w3.org/2000/svg" width="64" height="64" viewBox="0 0 64 64" fill="none">
  <path d="M32 32C27.6 32 23.8333 30.4333 20.7 27.3C17.5667 24.1667 16 20.4 16 16C16 11.6 17.5667 7.83333 20.7 4.7C23.8333 1.56667 27.6 0 32 0C36.4 0 40.1667 1.56667 43.3 4.7C46.4333 7.83333 48 11.6 48 16C48 20.4 46.4333 24.1667 43.3 27.3C40.1667 30.4333 36.4 32 32 32ZM0 64V52.8C0 50.5333 0.583333 48.45 1.75 46.55C2.91667 44.65 4.46667 43.2 6.4 42.2C10.5333 40.1333 14.7333 38.5833 19 37.55C23.2667 36.5167 27.6 36 32 36C36.4 36 40.7333 36.5167 45 37.55C49.2667 38.5833 53.4667 40.1333 57.6 42.2C59.5333 43.2 61.0833 44.65 62.25 46.55C63.4167 48.45 64 50.5333 64 52.8V64H0ZM8 56H56V52.8C56 52.0667 55.8167 51.4 55.45 50.8C55.0833 50.2 54.6 49.7333 54 49.4C50.4 47.6 46.7667 46.25 43.1 45.35C39.4333 44.45 35.7333 44 32 44C28.2667 44 24.5667 44.45 20.9 45.35C17.2333 46.25 13.6 47.6 10 49.4C9.4 49.7333 8.91667 50.2 8.55 50.8C8.18333 51.4 8 52.0667 8 52.8V56ZM32 24C34.2 24 36.0833 23.2167 37.65 21.65C39.2167 20.0833 40 18.2 40 16C40 13.8 39.2167 11.9167 37.65 10.35C36.0833 8.78333 34.2 8 32 8C29.8 8 27.9167 8.78333 26.35 10.35C24.7833 11.9167 24 13.8 24 16C24 18.2 24.7833 20.0833 26.35 21.65C27.9167 23.2167 29.8 24 32 24Z" fill="#1C1B1F"/>
</svg>