<svg xmlns="http://www.w3.org/2000/svg" width="64" height="64" viewBox="0 0 64 64" fill="none">
  <path d="M36.8801 50.6663C36.4817 50.6676 36.0881 50.5797 35.7282 50.4089C35.3682 50.2382 35.0511 49.989 34.8001 49.6796L21.9201 33.6796C21.5279 33.2024 21.3135 32.6039 21.3135 31.9863C21.3135 31.3686 21.5279 30.7701 21.9201 30.2929L35.2534 14.2929C35.7061 13.7484 36.3565 13.4059 37.0616 13.3409C37.7668 13.2759 38.4689 13.4936 39.0134 13.9463C39.558 14.3989 39.9005 15.0493 39.9655 15.7545C40.0305 16.4596 39.8127 17.1617 39.3601 17.7063L27.4401 31.9996L38.9601 46.2929C39.2862 46.6844 39.4933 47.161 39.557 47.6665C39.6207 48.1719 39.5383 48.6851 39.3194 49.1451C39.1006 49.6052 38.7546 49.993 38.3223 50.2625C37.89 50.5321 37.3895 50.6722 36.8801 50.6663Z" fill="#231F20"/>
</svg>