<svg xmlns="http://www.w3.org/2000/svg" width="64" height="64" viewBox="0 0 64 64" fill="none">
  <path d="M56.4678 35.1333C56.6048 34.1333 56.6734 33.1 56.6734 32C56.6734 30.9333 56.6048 29.8667 56.4335 28.8667L63.39 23.6C64.0068 23.1333 64.1782 22.2333 63.8012 21.5667L57.2217 10.5C56.8104 9.76667 55.9537 9.53333 55.1998 9.76667L47.0096 12.9667C45.2962 11.7 43.48 10.6333 41.4581 9.83333L40.2245 1.36667C40.0874 0.566666 39.402 0 38.5796 0H25.4204C24.598 0 23.9469 0.566666 23.8098 1.36667L22.5761 9.83333C20.5543 10.6333 18.7038 11.7333 17.0246 12.9667L8.83444 9.76667C8.08053 9.5 7.22382 9.76667 6.81259 10.5L0.267296 21.5667C-0.143927 22.2667 -0.00685291 23.1333 0.678519 23.6L7.63504 28.8667C7.4637 29.8667 7.32662 30.9667 7.32662 32C7.32662 33.0333 7.39516 34.1333 7.5665 35.1333L0.609981 40.4C-0.00685285 40.8667 -0.178195 41.7667 0.198759 42.4333L6.77832 53.5C7.18955 54.2333 8.04626 54.4667 8.80017 54.2333L16.9904 51.0333C18.7038 52.3 20.52 53.3667 22.5419 54.1667L23.7755 62.6333C23.9469 63.4333 24.598 64 25.4204 64H38.5796C39.402 64 40.0874 63.4333 40.1902 62.6333L41.4239 54.1667C43.4457 53.3667 45.2962 52.3 46.9754 51.0333L55.1656 54.2333C55.9195 54.5 56.7762 54.2333 57.1874 53.5L63.767 42.4333C64.1782 41.7 64.0068 40.8667 63.3557 40.4L56.4678 35.1333ZM32 44C25.2148 44 19.6633 38.6 19.6633 32C19.6633 25.4 25.2148 20 32 20C38.7852 20 44.3367 25.4 44.3367 32C44.3367 38.6 38.7852 44 32 44Z" fill="black"/>
</svg>