<svg xmlns="http://www.w3.org/2000/svg" width="64" height="64" viewBox="0 0 64 64" fill="none">
  <path d="M32.0001 42.6661C31.377 42.6673 30.7732 42.4503 30.2934 42.0528L14.2934 28.7194C13.7488 28.2668 13.4064 27.6164 13.3414 26.9112C13.2763 26.2061 13.4941 25.504 13.9468 24.9594C14.3994 24.4149 15.0498 24.0724 15.755 24.0074C16.4601 23.9424 17.1622 24.1601 17.7068 24.6128L32.0001 36.5594L46.2934 25.0394C46.5662 24.8179 46.88 24.6525 47.2169 24.5527C47.5539 24.4529 47.9072 24.4206 48.2566 24.4578C48.606 24.495 48.9446 24.6008 49.253 24.7693C49.5613 24.9377 49.8334 25.1655 50.0534 25.4394C50.2976 25.7136 50.4826 26.0353 50.5967 26.3843C50.7108 26.7333 50.7516 27.1021 50.7166 27.4676C50.6815 27.8331 50.5714 28.1874 50.393 28.5084C50.2147 28.8293 49.972 29.11 49.6801 29.3328L33.6801 42.2128C33.1865 42.5475 32.595 42.7071 32.0001 42.6661Z" fill="#231F20"/>
</svg>