<svg xmlns="http://www.w3.org/2000/svg" width="64" height="64" viewBox="0 0 64 64" fill="none">
  <mask id="mask0_550_256" style="mask-type:alpha" maskUnits="userSpaceOnUse" x="0" y="0" width="64" height="64">
    <rect width="64" height="64" fill="#D9D9D9"/>
  </mask>
  <g mask="url(#mask0_550_256)">
    <path d="M31.9999 55.9997L28.1333 52.5331C23.6444 48.4886 19.9333 44.9997 16.9999 42.0664C14.0666 39.1331 11.7333 36.4997 9.99992 34.1664C8.26659 31.8331 7.05547 29.6886 6.36659 27.7331C5.6777 25.7775 5.33325 23.7775 5.33325 21.7331C5.33325 17.5553 6.73325 14.0664 9.53325 11.2664C12.3333 8.46641 15.8221 7.06641 19.9999 7.06641C22.311 7.06641 24.511 7.5553 26.5999 8.53307C28.6888 9.51085 30.4888 10.8886 31.9999 12.6664C33.511 10.8886 35.311 9.51085 37.3999 8.53307C39.4888 7.5553 41.6888 7.06641 43.9999 7.06641C48.1777 7.06641 51.6666 8.46641 54.4666 11.2664C57.2666 14.0664 58.6666 17.5553 58.6666 21.7331C58.6666 23.7775 58.3221 25.7775 57.6333 27.7331C56.9444 29.6886 55.7332 31.8331 53.9999 34.1664C52.2666 36.4997 49.9333 39.1331 46.9999 42.0664C44.0666 44.9997 40.3555 48.4886 35.8666 52.5331L31.9999 55.9997ZM31.9999 48.7997C36.2666 44.9775 39.7777 41.6997 42.5332 38.9664C45.2888 36.2331 47.4666 33.8553 49.0666 31.8331C50.6666 29.8109 51.7777 28.0109 52.3999 26.4331C53.0221 24.8553 53.3332 23.2886 53.3332 21.7331C53.3332 19.0664 52.4444 16.8442 50.6666 15.0664C48.8888 13.2886 46.6666 12.3997 43.9999 12.3997C41.911 12.3997 39.9777 12.9886 38.1999 14.1664C36.4221 15.3442 35.1999 16.8442 34.5332 18.6664H29.4666C28.7999 16.8442 27.5777 15.3442 25.7999 14.1664C24.0221 12.9886 22.0888 12.3997 19.9999 12.3997C17.3333 12.3997 15.111 13.2886 13.3333 15.0664C11.5555 16.8442 10.6666 19.0664 10.6666 21.7331C10.6666 23.2886 10.9777 24.8553 11.5999 26.4331C12.2221 28.0109 13.3333 29.8109 14.9333 31.8331C16.5333 33.8553 18.711 36.2331 21.4666 38.9664C24.2221 41.6997 27.7332 44.9775 31.9999 48.7997Z" fill="#1C1B1F"/>
  </g>
</svg>